# xmcd CD database file
#
# Track frame offsets:
#	150
#	13938
#	34362
#	53097
#	71033
#	91627
#	108743
#	123554
#	133229
#	142167
#	151004
#	161004
#	177527
#
# Disc length: 2584 seconds
#
# Revision: 0
# Processed by: cddbd v1.5.2PL0 Copyright (c) Steve Scherf et al.
# Submitted via: CDex 1.50
#
DISCID=be0a160d
DTITLE=Jesse Henry - High Steppin And In Between
DYEAR=2004
DGENRE=Country
TTITLE0=The Perfect Time
TTITLE1=Call Off The Calvalry
TTITLE2=Sunday Dress Blues
TTITLE3=Roll Up Your Sleeves
TTITLE4=Light Up The Sky
TTITLE5=Kansas
TTITLE6=No More
TTITLE7=Building Up Speed
TTITLE8=Daughter Of The Moon
TTITLE9=Don't Like Chicken
TTITLE10=Never Been Gone
TTITLE11=Desolation Blues
TTITLE12=The Potion
EXTD=YEAR: 2004
EXTT0=
EXTT1=
EXTT2=
EXTT3=
EXTT4=
EXTT5=
EXTT6=
EXTT7=
EXTT8=
EXTT9=
EXTT10=
EXTT11=
EXTT12=
PLAYORDER=
